<?xml version="1.0" standalone="no"?>
<!DOCTYPE svg PUBLIC "-//W3C//DTD SVG 20010904//EN"
 "http://www.w3.org/TR/2001/REC-SVG-20010904/DTD/svg10.dtd">
<svg version="1.0" xmlns="http://www.w3.org/2000/svg"
 width="1200.000000pt" height="750.000000pt" viewBox="0 0 1200.000000 750.000000"
 preserveAspectRatio="xMidYMid meet">

<g transform="translate(0.000000,750.000000) scale(0.100000,-0.100000)"
fill="#ff5500" stroke="none">
<path d="M946 4631 l-940 -940 540 0 539 0 5 -943 5 -943 940 937 940 938
-542 0 -543 0 -2 945 -3 945 -939 -939z"/>
<path d="M5348 4180 c-89 -47 -122 -152 -76 -239 40 -77 110 -109 198 -90 56
12 96 47 122 107 65 147 -100 297 -244 222z"/>
<path d="M6520 3709 c-36 -4 -90 -17 -121 -28 -61 -23 -165 -87 -188 -114 -24
-30 -31 -18 -31 53 l0 71 -147 -3 -148 -3 -3 -577 -2 -578 150 0 150 0 0 392
0 391 43 42 c60 57 128 88 207 93 126 8 205 -37 229 -132 7 -29 11 -172 11
-415 l0 -371 150 0 150 0 0 428 c0 480 -5 530 -62 615 -73 107 -212 156 -388
136z"/>
<path d="M7690 3714 c-146 -18 -307 -79 -382 -146 l-37 -33 55 -102 55 -102
52 39 c118 90 309 122 422 72 99 -45 124 -92 125 -229 0 -51 -3 -93 -6 -93 -4
0 -22 14 -42 31 -102 89 -315 125 -465 79 -174 -54 -265 -188 -255 -374 8
-145 84 -252 224 -318 150 -70 372 -38 497 72 19 16 37 30 41 30 3 0 6 -25 6
-55 l0 -56 148 3 147 3 3 380 c1 234 -2 407 -8 450 -34 221 -184 335 -461 349
-46 2 -100 2 -119 0z m190 -691 c91 -40 100 -54 100 -144 0 -74 -1 -78 -31
-103 -64 -54 -87 -61 -199 -61 -97 0 -109 2 -152 28 -57 33 -80 73 -80 137 0
92 53 149 155 169 62 12 145 2 207 -26z"/>
<path d="M11245 3709 c-107 -14 -190 -55 -259 -128 -17 -17 -33 -31 -38 -31
-4 0 -8 32 -8 70 l0 71 -147 -3 -148 -3 0 -800 0 -800 148 -3 147 -3 0 291 c0
159 4 290 8 290 5 0 19 -12 33 -26 37 -41 119 -90 179 -108 61 -18 181 -21
260 -6 193 37 344 204 386 430 20 101 14 282 -11 375 -20 70 -73 176 -115 227
-66 80 -208 149 -330 161 -25 2 -72 0 -105 -4z m91 -297 c55 -28 119 -103 138
-160 70 -214 -19 -425 -201 -478 -99 -29 -218 4 -296 83 l-37 36 0 206 c0 170
3 210 15 229 22 30 91 76 145 96 62 23 181 17 236 -12z"/>
<path d="M9214 3700 c-109 -15 -209 -64 -286 -138 l-38 -36 0 77 0 77 -150 0
-150 0 0 -580 0 -580 150 0 150 0 0 395 0 395 41 40 c22 22 65 51 95 66 46 22
64 26 119 22 76 -5 110 -25 140 -84 19 -37 20 -62 23 -437 l3 -398 147 3 147
3 3 397 2 397 43 37 c70 61 137 87 213 82 75 -5 109 -25 139 -84 19 -37 20
-62 23 -436 l3 -398 155 0 155 0 -3 468 c-3 462 -4 468 -27 525 -50 127 -153
188 -311 188 -142 0 -265 -53 -358 -155 -24 -26 -45 -46 -46 -44 -1 2 -14 23
-28 48 -31 54 -69 91 -122 119 -35 18 -58 23 -156 35 -14 1 -48 0 -76 -4z"/>
<path d="M3288 3684 c-3 -3 -3 -18 2 -32 4 -15 26 -85 48 -157 90 -294 275
-902 284 -933 l9 -32 166 2 165 3 117 380 c64 209 121 379 127 378 5 -1 55
-151 111 -335 56 -183 109 -353 116 -378 l14 -45 170 -3 169 -2 167 568 c92
313 167 574 167 580 0 9 -43 12 -150 12 -146 0 -151 -1 -160 -22 -6 -13 -55
-187 -111 -388 -55 -201 -102 -367 -105 -369 -2 -2 -6 2 -8 10 -3 8 -60 183
-128 389 l-123 375 -134 0 -134 0 -28 -85 c-15 -47 -71 -219 -125 -382 -53
-164 -99 -298 -103 -298 -3 0 -54 172 -112 383 l-105 382 -150 3 c-83 1 -153
0 -156 -4z"/>
<path d="M5280 3110 l0 -580 150 0 150 0 -2 578 -3 577 -147 3 -148 3 0 -581z"/>
</g>
</svg>
